<mxfile host="app.diagrams.net" agent="Mozilla/5.0 (Windows NT 10.0; Win64; x64) AppleWebKit/537.36 (KHTML, like Gecko) Chrome/109.0.0.0 Safari/537.36" version="24.7.12">
  <diagram name="Página-1" id="W16bifGhVy9LFTYfN1EQ">
    <mxGraphModel dx="1194" dy="744" grid="1" gridSize="10" guides="1" tooltips="1" connect="1" arrows="1" fold="1" page="1" pageScale="1" pageWidth="827" pageHeight="1169" math="0" shadow="0">
      <root>
        <mxCell id="0" />
        <mxCell id="1" parent="0" />
        <mxCell id="tFPMuf3vBHrixNiArkSx-1" value="Garçom" style="swimlane;fontStyle=1;align=center;verticalAlign=top;childLayout=stackLayout;horizontal=1;startSize=26;horizontalStack=0;resizeParent=1;resizeParentMax=0;resizeLast=0;collapsible=1;marginBottom=0;whiteSpace=wrap;html=1;" vertex="1" parent="1">
          <mxGeometry x="289" y="300" width="250" height="190" as="geometry" />
        </mxCell>
        <mxCell id="tFPMuf3vBHrixNiArkSx-2" value="- registroGarcom; String&lt;div&gt;- salarioBaseGarcom: double&lt;/div&gt;&lt;div&gt;- gorjetaGarcom: double&amp;nbsp;&lt;/div&gt;&lt;div&gt;- mesasResponsavel: Mesa&lt;/div&gt;" style="text;strokeColor=none;fillColor=none;align=left;verticalAlign=top;spacingLeft=4;spacingRight=4;overflow=hidden;rotatable=0;points=[[0,0.5],[1,0.5]];portConstraint=eastwest;whiteSpace=wrap;html=1;" vertex="1" parent="tFPMuf3vBHrixNiArkSx-1">
          <mxGeometry y="26" width="250" height="74" as="geometry" />
        </mxCell>
        <mxCell id="tFPMuf3vBHrixNiArkSx-3" value="" style="line;strokeWidth=1;fillColor=none;align=left;verticalAlign=middle;spacingTop=-1;spacingLeft=3;spacingRight=3;rotatable=0;labelPosition=right;points=[];portConstraint=eastwest;strokeColor=inherit;" vertex="1" parent="tFPMuf3vBHrixNiArkSx-1">
          <mxGeometry y="100" width="250" height="8" as="geometry" />
        </mxCell>
        <mxCell id="tFPMuf3vBHrixNiArkSx-4" value="+ adicionarMesa(Mesa mesa)&lt;div&gt;+ removerMesa(Mesa mesa)&lt;/div&gt;&lt;div&gt;+ registrarPedido(double valorPedido)&lt;/div&gt;&lt;div&gt;+ salarioFinalGarcom()&lt;/div&gt;" style="text;strokeColor=none;fillColor=none;align=left;verticalAlign=top;spacingLeft=4;spacingRight=4;overflow=hidden;rotatable=0;points=[[0,0.5],[1,0.5]];portConstraint=eastwest;whiteSpace=wrap;html=1;" vertex="1" parent="tFPMuf3vBHrixNiArkSx-1">
          <mxGeometry y="108" width="250" height="82" as="geometry" />
        </mxCell>
        <mxCell id="tFPMuf3vBHrixNiArkSx-5" value="Usuário" style="swimlane;fontStyle=1;align=center;verticalAlign=top;childLayout=stackLayout;horizontal=1;startSize=26;horizontalStack=0;resizeParent=1;resizeParentMax=0;resizeLast=0;collapsible=1;marginBottom=0;whiteSpace=wrap;html=1;" vertex="1" parent="1">
          <mxGeometry x="289" y="150" width="250" height="70" as="geometry" />
        </mxCell>
        <mxCell id="tFPMuf3vBHrixNiArkSx-6" value="- nome: String&lt;div&gt;- email: String&lt;/div&gt;&lt;div&gt;&lt;br&gt;&lt;/div&gt;" style="text;strokeColor=none;fillColor=none;align=left;verticalAlign=top;spacingLeft=4;spacingRight=4;overflow=hidden;rotatable=0;points=[[0,0.5],[1,0.5]];portConstraint=eastwest;whiteSpace=wrap;html=1;" vertex="1" parent="tFPMuf3vBHrixNiArkSx-5">
          <mxGeometry y="26" width="250" height="44" as="geometry" />
        </mxCell>
        <mxCell id="tFPMuf3vBHrixNiArkSx-9" value="" style="endArrow=classic;html=1;rounded=0;exitX=0.492;exitY=1.023;exitDx=0;exitDy=0;exitPerimeter=0;entryX=0.5;entryY=0;entryDx=0;entryDy=0;" edge="1" parent="1" source="tFPMuf3vBHrixNiArkSx-6" target="tFPMuf3vBHrixNiArkSx-1">
          <mxGeometry width="50" height="50" relative="1" as="geometry">
            <mxPoint x="390" y="410" as="sourcePoint" />
            <mxPoint x="440" y="270" as="targetPoint" />
          </mxGeometry>
        </mxCell>
      </root>
    </mxGraphModel>
  </diagram>
</mxfile>
